Coordinates
version=1
nRows=42
nColumns=38
inDegrees=no

Units are S.I. units (second, meters, Newtons, ...)
If the header above contains a line with 'inDegrees', this indicates whether rotational values are in degrees (yes) or radians (no).

endheader
time	pelvis_tilt	pelvis_list	pelvis_rotation	pelvis_tx	pelvis_ty	pelvis_tz	hip_flexion_r	hip_adduction_r	hip_rotation_r	knee_angle_r	ankle_angle_r	subtalar_angle_r	mtp_angle_r	hip_flexion_l	hip_adduction_l	hip_rotation_l	knee_angle_l	ankle_angle_l	subtalar_angle_l	mtp_angle_l	lumbar_extension	lumbar_bending	lumbar_rotation	arm_flex_r	arm_add_r	arm_rot_r	elbow_flex_r	pro_sup_r	wrist_flex_r	wrist_dev_r	arm_flex_l	arm_add_l	arm_rot_l	elbow_flex_l	pro_sup_l	wrist_flex_l	wrist_dev_l
52.21	3.11842	1.38312	-1.27228	0.545047	0.207407	0.851823	0.267576	-0.0716174	-0.159203	0.992343	0.419892	0	0	0.33273	-0.164075	-0.121963	1.11093	0.473385	0	0	-0.711626	0.192504	0.0044677	0.43187	-0.265245	0.410021	0.272164	1.17532	0	0	0.182489	-0.3256	0.421406	0.808266	1.07763	0	0
52.22	3.12437	1.37765	-1.27793	0.545121	0.206814	0.85001	0.265686	-0.0717266	-0.157844	1.00171	0.427722	0	0	0.333397	-0.164667	-0.11943	1.12248	0.477814	0	0	-0.72204	0.195529	0.00699449	0.43624	-0.265325	0.41579	0.272213	1.17666	0	0	0.184691	-0.323936	0.422576	0.806591	1.07836	0	0
52.23	3.12059	1.36985	-1.27328	0.545055	0.206062	0.848761	0.252103	-0.0614373	-0.142724	0.99905	0.443186	0	0	0.331874	-0.167426	-0.115683	1.13254	0.481656	0	0	-0.735036	0.201448	0.0104247	0.441274	-0.265906	0.422543	0.272419	1.17866	0	0	0.187543	-0.321329	0.423689	0.804214	1.07903	0	0
52.24	3.12033	1.3654	-1.27321	0.545459	0.205481	0.847046	0.251519	-0.0522182	-0.132707	1.00487	0.448011	0	0	0.333657	-0.169855	-0.113942	1.14327	0.485608	0	0	-0.744188	0.204312	0.0135477	0.445033	-0.265001	0.42905	0.272017	1.17974	0	0	0.189597	-0.320398	0.425152	0.803362	1.07902	0	0
52.25	3.12504	1.36126	-1.27698	0.545513	0.204883	0.845487	0.251929	-0.0518729	-0.131622	1.01431	0.452755	0	0	0.334845	-0.169901	-0.111365	1.15264	0.489155	0	0	-0.752849	0.207225	0.0151375	0.448556	-0.264429	0.434661	0.271316	1.1799	0	0	0.191523	-0.318836	0.425939	0.802711	1.07887	0	0
52.26	3.13037	1.35789	-1.2815	0.545613	0.204289	0.843956	0.25372	-0.0517294	-0.129924	1.0237	0.456084	0	0	0.336464	-0.169693	-0.109238	1.16138	0.492379	0	0	-0.760562	0.209514	0.0164954	0.451886	-0.263569	0.439644	0.269893	1.17896	0	0	0.193373	-0.317504	0.427579	0.801402	1.07934	0	0
52.27	3.13511	1.35481	-1.28571	0.545735	0.203721	0.842497	0.255749	-0.0519545	-0.128319	1.03279	0.459163	0	0	0.338082	-0.169627	-0.107458	1.16964	0.495317	0	0	-0.767637	0.211524	0.0175197	0.454942	-0.262447	0.443282	0.268235	1.17568	0	0	0.194678	-0.316486	0.430037	0.799552	1.07979	0	0
52.28	3.1393	1.35198	-1.28963	0.545873	0.2032	0.841119	0.257412	-0.0518583	-0.126751	1.04101	0.46297	0	0	0.339725	-0.169601	-0.105855	1.17748	0.497927	0	0	-0.774188	0.213262	0.0185114	0.457671	-0.261307	0.44572	0.266143	1.17004	0	0	0.195588	-0.31561	0.432074	0.798612	1.07841	0	0
52.29	-3.14026	1.34977	-1.29312	0.545984	0.202729	0.83979	0.259355	-0.0518599	-0.125221	1.04865	0.467052	0	0	0.341761	-0.169326	-0.10421	1.18489	0.500293	0	0	-0.779924	0.214874	0.0194038	0.459939	-0.260232	0.447724	0.263833	1.16281	0	0	0.196048	-0.314524	0.432675	0.798768	1.07587	0	0
52.3	-3.13183	1.34666	-1.29996	0.545624	0.202241	0.838738	0.256822	-0.0618625	-0.133455	1.05668	0.474572	0	0	0.341917	-0.166524	-0.101172	1.19092	0.502407	0	0	-0.786198	0.21728	0.0187378	0.461823	-0.260076	0.44963	0.261926	1.15427	0	0	0.196356	-0.312655	0.432617	0.799065	1.07361	0	0
52.31	-3.13481	1.34681	-1.29911	0.546303	0.201847	0.837216	0.26405	-0.0514815	-0.121323	1.06277	0.472675	0	0	0.346706	-0.168829	-0.101606	1.19874	0.504711	0	0	-0.789239	0.217343	0.0220193	0.462842	-0.259252	0.450651	0.260423	1.13949	0	0	0.197068	-0.312569	0.435458	0.799117	1.07252	0	0
52.32	-3.13292	1.34515	-1.30143	0.546466	0.201417	0.836084	0.265845	-0.0510913	-0.119715	1.0686	0.475691	0	0	0.348571	-0.168651	-0.10022	1.20481	0.506581	0	0	-0.793791	0.218585	0.0237865	0.463795	-0.259377	0.449943	0.259362	1.12647	0	0	0.198021	-0.311759	0.439433	0.797825	1.07177	0	0
52.33	-3.13215	1.34336	-1.30269	0.546657	0.201036	0.835051	0.2673	-0.0505181	-0.118448	1.07404	0.478757	0	0	0.349985	-0.16885	-0.0988649	1.21034	0.508539	0	0	-0.79824	0.21998	0.025714	0.464513	-0.259746	0.448075	0.258354	1.11371	0	0	0.198771	-0.31109	0.443012	0.797494	1.06903	0	0
52.34	-3.13376	1.34145	-1.30142	0.546871	0.200689	0.834117	0.268326	-0.0493743	-0.117589	1.07918	0.480633	0	0	0.351134	-0.169757	-0.0974736	1.21534	0.51071	0	0	-0.80258	0.221948	0.0277957	0.465147	-0.260408	0.445848	0.25716	1.10148	0	0	0.199238	-0.310564	0.446194	0.797961	1.06417	0	0
52.35	-3.13585	1.33931	-1.29895	0.547006	0.20031	0.833316	0.269082	-0.0482583	-0.117539	1.08383	0.481643	0	0	0.352002	-0.170494	-0.0954428	1.21975	0.512632	0	0	-0.80703	0.224585	0.0294414	0.465991	-0.261522	0.4436	0.2557	1.08966	0	0	0.199702	-0.310262	0.449595	0.799016	1.05664	0	0
52.36	-3.13834	1.3373	-1.29586	0.5471	0.199979	0.832628	0.269545	-0.0470402	-0.117795	1.08757	0.482764	0	0	0.352748	-0.171285	-0.0934582	1.2236	0.514326	0	0	-0.811386	0.227294	0.0314555	0.466811	-0.262211	0.431085	0.252743	1.08683	0	0	0.200216	-0.308614	0.449045	0.798402	1.06989	0	0
52.37	-3.13994	1.33518	-1.29368	0.547203	0.19963	0.83204	0.269472	-0.0462304	-0.118355	1.0907	0.483755	0	0	0.353157	-0.171911	-0.0916812	1.22698	0.515657	0	0	-0.815703	0.229834	0.033566	0.467597	-0.263601	0.422572	0.249525	1.07544	0	0	0.201078	-0.307612	0.450749	0.798389	1.0763	0	0
52.38	3.1415	1.33366	-1.29053	0.547233	0.199215	0.831444	0.269714	-0.045929	-0.119886	1.09345	0.484727	0	0	0.35468	-0.171841	-0.0887595	1.23052	0.516488	0	0	-0.818952	0.233187	0.0338695	0.467714	-0.268208	0.448649	0.251426	0.996965	0	0	0.200722	-0.307119	0.451153	0.799377	1.08257	0	0
52.39	3.14023	1.33302	-1.28764	0.547229	0.198889	0.830858	0.270558	-0.0461897	-0.121728	1.09596	0.485853	0	0	0.356827	-0.171179	-0.0856509	1.23372	0.517179	0	0	-0.821239	0.236127	0.0346691	0.467707	-0.270031	0.441203	0.248494	0.976416	0	0	0.200932	-0.306717	0.453093	0.800607	1.08301	0	0
52.4	3.13837	1.33235	-1.28463	0.547304	0.198595	0.830379	0.271216	-0.0461419	-0.123218	1.09788	0.486753	0	0	0.358549	-0.17094	-0.0830354	1.23643	0.517744	0	0	-0.823409	0.238785	0.0360535	0.467514	-0.272167	0.433934	0.24513	0.959611	0	0	0.201288	-0.306352	0.455154	0.801827	1.08299	0	0
52.41	3.13443	1.33184	-1.27986	0.547371	0.198298	0.829991	0.271711	-0.0456484	-0.124833	1.09891	0.487466	0	0	0.360228	-0.171191	-0.0805805	1.23865	0.518241	0	0	-0.825295	0.241406	0.0379409	0.466545	-0.274484	0.424326	0.242908	0.947212	0	0	0.201651	-0.30588	0.457265	0.803047	1.08279	0	0
52.42	3.13203	1.33113	-1.27658	0.547499	0.197969	0.829738	0.27177	-0.0454412	-0.126534	1.09961	0.487738	0	0	0.361235	-0.171194	-0.0784111	1.23999	0.518475	0	0	-0.827396	0.244148	0.0394315	0.465857	-0.276892	0.416166	0.241046	0.938088	0	0	0.20195	-0.305653	0.459214	0.804191	1.08257	0	0
52.43	3.1307	1.33054	-1.27438	0.547624	0.197648	0.829613	0.271775	-0.0455935	-0.12823	1.10005	0.48747	0	0	0.361831	-0.170902	-0.076612	1.24056	0.518588	0	0	-0.829363	0.246285	0.0409674	0.464689	-0.279757	0.408729	0.240307	0.931636	0	0	0.202538	-0.305595	0.461425	0.805352	1.08214	0	0
52.44	3.13117	1.33012	-1.27421	0.547785	0.197361	0.829608	0.271771	-0.0461068	-0.129586	1.10044	0.487293	0	0	0.361953	-0.170201	-0.0752726	1.24048	0.518556	0	0	-0.83124	0.247789	0.042293	0.463451	-0.282451	0.40129	0.239922	0.926526	0	0	0.203003	-0.305653	0.462987	0.806649	1.08157	0	0
52.45	3.13284	1.32992	-1.27554	0.54799	0.197086	0.829702	0.271614	-0.0467745	-0.130519	1.10038	0.487029	0	0	0.361845	-0.169254	-0.074369	1.23988	0.518188	0	0	-0.833023	0.24858	0.0437623	0.462627	-0.284204	0.385172	0.238188	0.938843	0	0	0.203638	-0.305762	0.464292	0.807851	1.08297	0	0
52.46	3.13586	1.32986	-1.27856	0.548245	0.196803	0.82988	0.271279	-0.0475861	-0.130966	1.09986	0.486925	0	0	0.361493	-0.168061	-0.0739017	1.23878	0.517364	0	0	-0.834631	0.248785	0.0449626	0.461424	-0.287758	0.387743	0.239605	0.914172	0	0	0.204248	-0.306403	0.466517	0.809293	1.08114	0	0
52.47	3.1371	1.32943	-1.27987	0.548444	0.196486	0.830217	0.269334	-0.0496414	-0.132896	1.10039	0.489689	0	0	0.360675	-0.167255	-0.0731976	1.23721	0.516252	0	0	-0.836568	0.249459	0.0464351	0.461159	-0.290988	0.38494	0.239119	0.911121	0	0	0.20476	-0.306385	0.467255	0.810101	1.08121	0	0
52.48	3.13816	1.32999	-1.28171	0.548798	0.196239	0.830426	0.270198	-0.0499809	-0.13291	1.09989	0.48879	0	0	0.360881	-0.166768	-0.0733136	1.236	0.515188	0	0	-0.837163	0.249118	0.0481943	0.460926	-0.293205	0.374578	0.237284	0.92119	0	0	0.205009	-0.306782	0.467938	0.811175	1.08206	0	0
52.49	3.13753	1.33052	-1.28196	0.54919	0.196017	0.830709	0.270789	-0.0496271	-0.13272	1.09853	0.487515	0	0	0.361038	-0.16691	-0.073531	1.2346	0.514056	0	0	-0.837557	0.249013	0.0501055	0.460619	-0.296221	0.373281	0.236359	0.918306	0	0	0.205173	-0.307315	0.468725	0.812179	1.08187	0	0
52.5	3.13635	1.331	-1.28162	0.549572	0.195824	0.831068	0.271037	-0.0489466	-0.132458	1.09658	0.486201	0	0	0.360926	-0.167279	-0.0738559	1.23275	0.512982	0	0	-0.83788	0.249037	0.0520664	0.460319	-0.299428	0.373341	0.235357	0.915604	0	0	0.205425	-0.307821	0.46947	0.812891	1.08142	0	0
52.51	3.13563	1.33143	-1.28157	0.54993	0.195645	0.831481	0.271009	-0.0482836	-0.132235	1.09424	0.485222	0	0	0.360516	-0.167506	-0.0741406	1.23059	0.511892	0	0	-0.838065	0.249099	0.0538051	0.459969	-0.302636	0.374748	0.234343	0.912811	0	0	0.20569	-0.308325	0.470153	0.813306	1.08113	0	0
52.52	3.13602	1.33196	-1.28238	0.550258	0.195492	0.831913	0.270723	-0.0479209	-0.13208	1.09192	0.484562	0	0	0.359986	-0.167349	-0.0744279	1.22816	0.510742	0	0	-0.837875	0.249058	0.0549807	0.459365	-0.305661	0.377135	0.234019	0.908631	0	0	0.205672	-0.309026	0.470703	0.813791	1.08092	0	0
52.53	3.13891	1.33349	-1.28585	0.550669	0.195417	0.832185	0.272721	-0.0467512	-0.130085	1.08898	0.479929	0	0	0.360295	-0.16659	-0.0753194	1.22595	0.509687	0	0	-0.836291	0.247947	0.0554614	0.457991	-0.308004	0.378719	0.23464	0.904726	0	0	0.205143	-0.3103	0.471035	0.814585	1.08113	0	0
52.54	3.14046	1.3342	-1.28768	0.551013	0.195283	0.832678	0.272644	-0.0468073	-0.129657	1.08663	0.477864	0	0	0.359725	-0.166287	-0.0759703	1.22318	0.508253	0	0	-0.835661	0.247618	0.0561089	0.456892	-0.310569	0.380811	0.236038	0.901452	0	0	0.204825	-0.311211	0.470847	0.815104	1.08175	0	0
52.55	-3.13739	1.33358	-1.29166	0.550994	0.195126	0.833469	0.268468	-0.0563527	-0.138909	1.0854	0.48042	0	0	0.35704	-0.164262	-0.0754381	1.21915	0.506551	0	0	-0.836101	0.248403	0.0551505	0.456011	-0.313438	0.38308	0.238077	0.89817	0	0	0.204368	-0.311505	0.469716	0.815115	1.08279	0	0
52.56	3.1407	1.33557	-1.28897	0.551972	0.195091	0.833831	0.272781	-0.0455183	-0.1284	1.08177	0.473894	0	0	0.35819	-0.167738	-0.0787132	1.21688	0.505277	0	0	-0.833952	0.246872	0.0578388	0.454831	-0.314957	0.383383	0.2401	0.897369	0	0	0.203856	-0.313275	0.469078	0.815942	1.08313	0	0
52.57	-3.13514	1.33561	-1.29549	0.551809	0.194964	0.834622	0.268613	-0.0557685	-0.137358	1.08001	0.476819	0	0	0.35548	-0.165079	-0.0791494	1.2124	0.503461	0	0	-0.833153	0.247143	0.0565009	0.453662	-0.317741	0.381946	0.243402	0.898296	0	0	0.202892	-0.31309	0.467355	0.81561	1.08392	0	0
52.58	-3.13169	1.33732	-1.29955	0.552142	0.194852	0.835164	0.269386	-0.0565462	-0.13699	1.07775	0.475376	0	0	0.355277	-0.164545	-0.0810658	1.20891	0.501555	0	0	-0.830523	0.246115	0.056545	0.452009	-0.319354	0.378893	0.246805	0.901074	0	0	0.202	-0.313928	0.466108	0.815727	1.08457	0	0
52.59	-3.12774	1.33934	-1.30422	0.552508	0.194801	0.835701	0.270358	-0.0574117	-0.136335	1.07527	0.473917	0	0	0.355301	-0.164095	-0.0833782	1.2054	0.499678	0	0	-0.827226	0.244783	0.0565968	0.449694	-0.320252	0.373384	0.250758	0.905182	0	0	0.200866	-0.314768	0.464469	0.815934	1.085	0	0
52.6	-3.12454	1.34156	-1.30836	0.552907	0.19482	0.836234	0.271532	-0.058176	-0.135677	1.07264	0.472241	0	0	0.355459	-0.164128	-0.0861029	1.20182	0.497837	0	0	-0.823315	0.243416	0.0568229	0.44687	-0.32047	0.36538	0.255285	0.909767	0	0	0.199401	-0.315561	0.462331	0.816163	1.08518	0	0
52.61	-3.12262	1.34375	-1.31134	0.553318	0.194873	0.836779	0.272552	-0.0587179	-0.135297	1.0697	0.470438	0	0	0.35556	-0.164689	-0.089008	1.19817	0.496064	0	0	-0.819066	0.242262	0.0571528	0.443604	-0.32003	0.355175	0.260583	0.915428	0	0	0.197541	-0.316416	0.459854	0.816596	1.08508	0	0
52.62	-3.12172	1.34592	-1.31338	0.553769	0.194959	0.837356	0.273588	-0.0588376	-0.135031	1.06659	0.468562	0	0	0.355546	-0.165731	-0.0920784	1.19431	0.494253	0	0	-0.814678	0.241189	0.0577928	0.440005	-0.318851	0.343332	0.265795	0.922452	0	0	0.19574	-0.3174	0.457538	0.817329	1.08471	0	0
